<svg role="img" viewBox="0 0 128 128" xmlns="http://www.w3.org/2000/svg">
<path fill="#777BB4" d="M64 8C30.874 8 4 24.326 4 44s26.874 36 60 36 60-16.326 60-36S97.126 8 64 8zm-7.02 48H43.482l-2.25 12H28l8.002-40h21.005c10.124 0 16.075 4.874 14.407 15.09C69.624 52.23 63.48 56 56.98 56zM49.136 36h-6.654l-3.25 16h6.773c6.427 0 10.39-3.05 11.166-7.5C57.85 39.377 56.14 36 49.136 36zm52.881 20H91.482l-2.25 12H76l8.002-40h21.005c10.124 0 16.075 4.874 14.407 15.09C111.624 52.23 105.48 56 98.98 56zm-6.844-20h-6.654l-3.25 16h6.773c6.427 0 10.39-3.05 11.167-7.5C100.85 39.377 99.14 36 93.136 36z"/>
</svg>
